{"title":"Cock Riding Action With Gina Shannon - FirstAnalQuest","uid":10555276,"size":465766131,"categoryP":"porn","categoryS":"movie_clips","magnet":"?xt=urn:btih:db9df9939bbd45c23c9d9133e174cb4b7105e6cb&amp;dn=Cock+Riding+Action+With+Gina+Shannon+-+FirstAnalQuest&amp;tr=udp%3A%2F%2Ftracker.openbittorrent.com%3A80&amp;tr=udp%3A%2F%2Fopen.demonii.com%3A1337&amp;tr=udp%3A%2F%2Ftracker.coppersurfer.tk%3A6969&amp;tr=udp%3A%2F%2Fexodus.desync.com%3A6969","seeders":2,"leechers":1,"uploader":"athklym","files":-1,"time":1405383518,"description":" &lt;a href=&quot;http://bayimg.com/HaPdgaAFe&quot; rel=&quot;nofollow&quot; target=&quot;_NEW&quot;&gt;http://bayimg.com/HaPdgaAFe&lt;/a&gt;\n\nThe hunting season for hot anal virgins is still open! We continue our journey around Europe searching for horny teens who love to get their pink pussies invaded by huge cocks and ready to sell their anal innocence for some cash. The next girl in our collection is simply marvelous! Her beautiful freckled face is so lovely and pure, but her curvy body is made for sin! Amazing perfectly shaped and 100% natural tits, tiny waist and yummy round butt with adorable tight pink asshole - one of the hottest babes we've ever had! Our actor got seduced by her charming beauty as soon as he saw her and he couldn't wait long to pull down her sexy panties and fondle her pink fucking holes. Babe's nice shaved pussy got dripping wet and was craving for a throbbing cock inside. But her anal aperture was too tight to take every inch of the king size dick! It was her first anal experience for sure! But few minutes later she was bouncing her gorgeous butt on the balls and enjoyed her quest to the fullest!\n\nLinda_FirstAnalQuest.wmv\nFormat : Windows Media\nFile size : 444 MiB\nDuration : 24mn 8s\nOverall bit rate mode : Constant\nOverall bit rate : 2 573 Kbps\nMaximum Overall bit rate : 2 583 Kbps\nEncoded date : UTC 2010-02-04 05:30:06.910\nSfOriginalFPS : 299700\n\nVideo\nID : 2\nFormat : VC-1\nFormat profile : MP@HL\nCodec ID : WMV3\nCodec ID/Info : Windows Media Video 9\nCodec ID/Hint : WMV3\nDescription of the codec : Windows Media Video 9 - Professional\nDuration : 24mn 8s\nBit rate mode : Constant\nBit rate : 2 368 Kbps\nWidth : 800 pixels\nHeight : 452 pixels\nDisplay aspect ratio : 16:9\nFrame rate : 29.970 fps\nColor space : YUV\nChroma subsampling : 4:2:0\nBit depth : 8 bits\nScan type : Progressive\nCompression mode : Lossy\nBits/(Pixel*Frame) : 0.219\nStream size : 409 MiB (92%)\nLanguage : Russian\n\nAudio\nID : 1\nFormat : WMA\nFormat version : Version 2\nCodec ID : 161\nCodec ID/Info : Windows Media Audio\nDescription of the codec : Windows Media Audio 9.2 - 192 kbps, 48 kHz, stereo (A/V) 1-pass CBR\nDuration : 24mn 8s\nBit rate mode : Constant\nBit rate : 192 Kbps\nChannel(s) : 2 channels\nSampling rate : 48.0 KHz\nBit depth : 16 bits\nStream size : 33.1 MiB (7%)\nLanguage : Russian","torrent":{"xt":"urn:btih:db9df9939bbd45c23c9d9133e174cb4b7105e6cb","amp;dn":"Cock+Riding+Action+With+Gina+Shannon+-+FirstAnalQuest","amp;tr":["udp%3A%2F%2Ftracker.openbittorrent.com%3A80","udp%3A%2F%2Fopen.demonii.com%3A1337","udp%3A%2F%2Ftracker.coppersurfer.tk%3A6969","udp%3A%2F%2Fexodus.desync.com%3A6969"],"infoHash":"db9df9939bbd45c23c9d9133e174cb4b7105e6cb","infoHashBuffer":{"type":"Buffer","data":[219,157,249,147,155,189,69,194,60,157,145,51,225,116,203,75,113,5,230,203]},"announce":[],"urlList":[]}}